<!-- Generator: Adobe Illustrator 23.0.1, SVG Export Plug-In  -->
<svg version="1.1" xmlns="http://www.w3.org/2000/svg" xmlns:xlink="http://www.w3.org/1999/xlink" x="0px" y="0px"
	 width="142.42px" height="38.99px" viewBox="0 0 142.42 38.99" style="enable-background:new 0 0 142.42 38.99;"
	 xml:space="preserve">
<style type="text/css">
	.st0{fill:#001828;}
	.st1{fill:#13CDF5;}
	.st2{fill:#136ACD;}
	.st3{fill:#13B2DE;}
</style>
<defs>
</defs>
<g>
	<path class="st0" d="M59.81,29.43V9.9c0-0.84,0.24-1.5,0.71-1.99s1.14-0.73,2-0.73h6.14c1.66,0,3.18,0.35,4.55,1.04
		c1.37,0.69,2.44,1.67,3.21,2.93c0.76,1.26,1.14,2.7,1.14,4.31c0,1.25-0.23,2.39-0.69,3.42c-0.46,1.02-1.08,1.89-1.86,2.6
		s-1.71,1.26-2.77,1.64c-1.06,0.38-2.18,0.58-3.36,0.58h-3.86v5.71c0,0.86-0.24,1.53-0.72,2c-0.48,0.47-1.11,0.71-1.87,0.71
		c-0.76,0-1.38-0.24-1.88-0.72C60.06,30.93,59.81,30.27,59.81,29.43z M65.02,11.77v7.37h3.55c1.06,0,1.93-0.34,2.59-1.04
		c0.66-0.69,0.99-1.57,0.99-2.65c0-0.69-0.15-1.32-0.44-1.88c-0.29-0.56-0.71-1-1.26-1.32c-0.54-0.32-1.17-0.48-1.88-0.48H65.02z"/>
	<path class="st0" d="M78.18,28.55l6.99-18.91c0.33-0.87,0.82-1.57,1.47-2.1c0.65-0.53,1.4-0.79,2.25-0.79
		c0.89,0,1.66,0.26,2.3,0.78c0.64,0.52,1.11,1.22,1.42,2.1l6.82,18.91c0.18,0.5,0.27,0.93,0.27,1.29c0,0.44-0.11,0.84-0.33,1.19
		s-0.51,0.62-0.87,0.81c-0.36,0.19-0.76,0.29-1.19,0.29c-1.29,0-2.14-0.6-2.54-1.79l-1.04-3.26h-9.66l-1.05,3.23
		c-0.38,1.22-1.22,1.83-2.5,1.83c-0.71,0-1.32-0.24-1.82-0.71c-0.5-0.47-0.75-1.04-0.75-1.72C77.94,29.38,78.02,28.99,78.18,28.55z
		 M88.85,12.19l-3.29,10.08h6.6l-3.24-10.08H88.85z"/>
	<path class="st0" d="M105.67,29.6v-9.28l-6.57-9.25c-0.32-0.45-0.48-0.97-0.48-1.56c0-0.7,0.24-1.3,0.71-1.79
		c0.47-0.49,1.07-0.74,1.79-0.74c0.96,0,1.68,0.35,2.16,1.04l5.01,7.26l5.01-7.26c0.46-0.69,1.18-1.04,2.16-1.04
		c0.72,0,1.32,0.25,1.79,0.74s0.7,1.09,0.7,1.79c0,0.59-0.16,1.11-0.47,1.56l-6.58,9.25v9.28c0,0.71-0.22,1.31-0.65,1.8
		c-0.44,0.49-1.08,0.73-1.94,0.73c-0.87,0-1.53-0.24-1.96-0.73C105.88,30.92,105.67,30.32,105.67,29.6z"/>
	<path class="st0" d="M121.73,29.32V9.87c0-0.79,0.25-1.44,0.76-1.94c0.51-0.5,1.15-0.75,1.92-0.75h5.77c1.95,0,3.68,0.3,5.2,0.9
		s2.81,1.45,3.85,2.55c1.05,1.1,1.84,2.44,2.38,4.01c0.54,1.57,0.81,3.32,0.81,5.25c0,1.81-0.28,3.46-0.84,4.94
		c-0.56,1.48-1.37,2.75-2.42,3.81c-1.05,1.06-2.32,1.87-3.8,2.44c-1.48,0.57-3.09,0.85-4.84,0.85h-6.04c-0.43,0-0.85-0.08-1.26-0.25
		c-0.41-0.17-0.76-0.45-1.05-0.84S121.73,29.94,121.73,29.32z M126.94,11.99v15.14h3.52c1.46,0,2.68-0.33,3.66-0.97
		c0.97-0.65,1.7-1.53,2.18-2.64c0.48-1.11,0.71-2.39,0.71-3.84c0-1.49-0.24-2.82-0.73-3.98s-1.25-2.07-2.28-2.72
		c-1.03-0.65-2.32-0.97-3.88-0.97H126.94z"/>
</g>
<g>
	<path class="st1" d="M31.3,38.99H12.43c-1.66,0-3-1.34-3-3s1.34-3,3-3H31.3c1.66,0,3,1.34,3,3S32.95,38.99,31.3,38.99z"/>
	<path class="st2" d="M12.5,38.99c-1.04,0-2.05-0.54-2.6-1.5L0.4,21.02c-0.83-1.44-0.34-3.27,1.1-4.1c1.44-0.83,3.27-0.34,4.1,1.1
		l9.5,16.47c0.83,1.44,0.34,3.27-1.1,4.1C13.53,38.86,13.01,38.99,12.5,38.99z"/>
	<path class="st3" d="M3,22.52c-0.51,0-1.02-0.13-1.49-0.4c-1.44-0.83-1.93-2.66-1.11-4.1L9.9,1.51c0.83-1.44,2.66-1.93,4.1-1.11
		c1.44,0.83,1.93,2.66,1.11,4.1L5.6,21.02C5.05,21.98,4.04,22.52,3,22.52z"/>
</g>
<g>
	<path class="st1" d="M31.27,6H12.4c-1.66,0-3-1.34-3-3s1.34-3,3-3h18.87c1.66,0,3,1.34,3,3S32.92,6,31.27,6z"/>
	<path class="st2" d="M40.7,22.47c-1.04,0-2.05-0.54-2.6-1.5L28.6,4.5c-0.83-1.44-0.34-3.27,1.1-4.1c1.43-0.83,3.27-0.33,4.1,1.1
		l9.5,16.47c0.83,1.44,0.34,3.27-1.1,4.1C41.72,22.34,41.21,22.47,40.7,22.47z"/>
	<path class="st3" d="M31.2,38.99c-0.51,0-1.02-0.13-1.49-0.4c-1.44-0.83-1.93-2.66-1.11-4.1l9.5-16.52
		c0.83-1.43,2.66-1.93,4.1-1.11c1.44,0.83,1.93,2.66,1.11,4.1l-9.5,16.52C33.24,38.45,32.23,38.99,31.2,38.99z"/>
</g>
</svg>
